<svg xmlns="http://www.w3.org/2000/svg" width="123" height="16" viewBox="0 0 123 16">
  <defs>
    <style>
      .cls-1 {
        fill: #fff;
        fill-rule: evenodd;
      }
    </style>
  </defs>
  <path id="Chronopost_food" data-name="Chronopost food" class="cls-1" d="M655.177,3453.7v-1.81c2.309-.99,2.911-1.9,2.377-3.54-0.441-1.36-1.473-1.73-3.567-1.2V3457h-2.4v-11.56c2.092-.89,4.294-1.27,6.483-0.11,2.677,1.42,2.793,5.88.246,7.6A4.338,4.338,0,0,1,655.177,3453.7ZM608.415,3441h2.265v3.89a20.108,20.108,0,0,1,2.423-.2,2.8,2.8,0,0,1,3,2.93c0.076,1.91.017,3.81,0.017,5.82h-2.352v-5.88c-0.982-.95-1.927-0.62-3.025-0.5v6.4h-2.328V3441Zm18.953,3.67a4.55,4.55,0,0,1-.037,9.1A4.55,4.55,0,0,1,627.368,3444.67Zm-0.062,7.05c1.678-.53,2.348-1.43,2.148-2.87a2.138,2.138,0,0,0-4.276-.01C624.982,3450.3,625.626,3451.17,627.306,3451.72Zm18.753-7.05a4.551,4.551,0,0,1,.184,9.1A4.551,4.551,0,0,1,646.059,3444.67Zm24.01,4.53a4.379,4.379,0,0,1-4.559,4.57,4.553,4.553,0,0,1-.047-9.1A4.385,4.385,0,0,1,670.069,3449.2Zm-6.6.04c0,1.61,1.146,2.73,2.476,2.43,1.251-.28,1.922-1.5,1.675-3.05a2.13,2.13,0,0,0-2.2-1.88A2.225,2.225,0,0,0,663.469,3449.24Zm-28.271-2.22v6.41h-2.241v-8a10.533,10.533,0,0,1,4.526-.75c2.115,0.14,3.136,1.21,3.175,3.35,0.032,1.79.007,3.58,0.007,5.44h-2.358c0-1.46.025-2.96-.012-4.46a18.9,18.9,0,0,0-.266-1.99H635.2Zm48.476,4.47v2.27a26.154,26.154,0,0,1-2.661-.02,2.768,2.768,0,0,1-2.708-2.88c-0.032-.45-0.019-0.91-0.019-1.36,0-2.53,0-5.07,0-7.73h2.324v3.06c1.09,0.05,2.016.1,3.011,0.15v1.89h-2.872v4.07C681.593,3452.02,682.646,3451.53,683.674,3451.49Zm-12.7,1.45v-1.99c1.324,0.26,2.612,1.59,4.087-.06a10.078,10.078,0,0,0-1.181-.71c-0.356-.15-0.768-0.15-1.138-0.27a2.554,2.554,0,0,1-2.013-2.58,2.723,2.723,0,0,1,2.39-2.65,4.491,4.491,0,0,1,3.462.61v1.89a9.922,9.922,0,0,0-1.8-.53,8.308,8.308,0,0,0-1.7.19c-0.035.13-.07,0.26-0.105,0.4a5.3,5.3,0,0,0,.927.74,12.952,12.952,0,0,0,1.287.37,2.661,2.661,0,0,1-.245,5.17A5.058,5.058,0,0,1,670.97,3452.94Zm-63.824-7.52v1.99c-1.512-.56-2.974-1.16-4.184.36a2.6,2.6,0,0,0-.019,2.85c0.8,1.11,2.007,1.26,4.24.44,0.032,0.33.073,0.62,0.086,0.92,0.014,0.33,0,.67,0,0.96a4.7,4.7,0,0,1-6.02-.56,4.521,4.521,0,0,1-.2-6.02C602.429,3444.58,604.858,3444.18,607.146,3445.42Zm114.622,0.24v-3.64c0.415-.05.769-0.09,1.231-0.14v11.62c-0.309.08-.652,0.17-1.008,0.26-0.134-.35-0.23-0.61-0.339-0.9-2.566,1.48-4.961,1.52-6.59-1.29a4.769,4.769,0,0,1,.567-5.51C716.785,3444.55,718.821,3444.46,721.768,3445.66Zm-0.025,1.5c-1.684-1.73-3.638-1.91-5.05-.51a3.941,3.941,0,0,0,0,5.23c1.385,1.38,3.483,1.23,5.052-.38v-4.34Zm-24.267,6.68a4.365,4.365,0,0,1-4.619-4.65,4.5,4.5,0,0,1,4.762-4.54,4.607,4.607,0,0,1,4.579,4.62C702.055,3451.73,700.619,3453.96,697.476,3453.84Zm3.4-5.83c-1.4-2.19-3.11-2.84-4.931-1.93a3.583,3.583,0,0,0,2.507,6.67C700.294,3452.34,701.09,3450.81,700.878,3448.01Zm7.5,5.83a4.427,4.427,0,0,1-4.716-4.41,4.675,4.675,0,1,1,9.348-.1A4.447,4.447,0,0,1,708.374,3453.84Zm3.381-4.55a3.43,3.43,0,1,0-6.849.05,3.291,3.291,0,0,0,3.447,3.48A3.337,3.337,0,0,0,711.755,3449.29Zm-88.82-4.43v2.09H620.31c-0.979,2.11-.2,4.29-0.6,6.47h-2.2c0-2.05-.1-4.17.038-6.27a2.53,2.53,0,0,1,2.14-2.3A6.852,6.852,0,0,1,622.935,3444.86Zm64.556,1.63c-0.767-.11-1.352-0.19-1.99-0.27,0.17-1.24,1.153-.66,1.834-1.03,0.145-1.3.095-2.89,1.843-3.45a2.878,2.878,0,0,1,3.011.69c-0.029.25-.058,0.51-0.091,0.79-2.6-1.09-3.475-.6-3.554,2.07h3.136c0.072,0.38.112,0.58,0.188,0.98h-3.3v7.29c-0.373.08-.625,0.14-1.082,0.24v-7.31Zm-39.319,2.77a2.2,2.2,0,0,1-1.99,2.46,2.228,2.228,0,0,1-2.189-2.28,2.291,2.291,0,0,1,1.928-2.68C647.216,3446.61,648.186,3447.69,648.172,3449.26Z" transform="translate(-600 -3441)"/>
</svg>
