<svg xmlns="http://www.w3.org/2000/svg" width="91.13" height="17" viewBox="0 0 91.13 17">
  <defs>
    <style>
      .cls-1 {
        fill: #fff;
        fill-rule: evenodd;
      }
    </style>
  </defs>
  <path id="Forma_1" data-name="Forma 1" class="cls-1" d="M1010.1,3452.01v-3.06h2.54a2.321,2.321,0,0,0,1.03-.22,2.529,2.529,0,0,0,.79-0.62,2.7,2.7,0,0,0,.51-0.87,2.962,2.962,0,0,0,.18-1.02,2.6,2.6,0,0,0-.19-0.99,3.128,3.128,0,0,0-.53-0.88,2.507,2.507,0,0,0-.82-0.62,2.273,2.273,0,0,0-1.04-.24h-3.55v8.52h1.08Zm0-7.56h2.41a1.39,1.39,0,0,1,.6.14,1.445,1.445,0,0,1,.49.37,1.841,1.841,0,0,1,.33.56,1.815,1.815,0,0,1,.13.7,2.154,2.154,0,0,1-.11.68,1.72,1.72,0,0,1-.3.57,1.43,1.43,0,0,1-.46.39,1.334,1.334,0,0,1-.61.13h-2.48v-3.54Zm9.74,7.42a3.134,3.134,0,0,0,1-.71,3.058,3.058,0,0,0,.65-1.03,3.414,3.414,0,0,0,.23-1.24,3.223,3.223,0,0,0-.24-1.24,3.1,3.1,0,0,0-.65-1.04,3.166,3.166,0,0,0-3.56-.7,3.107,3.107,0,0,0-1,.7,3.464,3.464,0,0,0-.88,2.28,3.414,3.414,0,0,0,.23,1.24,3.2,3.2,0,0,0,.64,1.03,3.134,3.134,0,0,0,1,.71A3.33,3.33,0,0,0,1019.84,3451.87Zm-3.21-3.88a2.457,2.457,0,0,1,.45-0.75,2.137,2.137,0,0,1,.66-0.5,1.866,1.866,0,0,1,1.62-.01,2.137,2.137,0,0,1,.66.5,2.033,2.033,0,0,1,.45.75,2.442,2.442,0,0,1,.17.9,2.509,2.509,0,0,1-.17.92,2.075,2.075,0,0,1-.45.74,1.993,1.993,0,0,1-.66.5,1.912,1.912,0,0,1-1.62,0,2.105,2.105,0,0,1-.66-0.49,2.357,2.357,0,0,1-.45-0.73A2.7,2.7,0,0,1,1016.63,3447.99Zm7.33,4.02v-6.26h-1.06v6.26h1.06Zm0-7.44v-1.32h-1.06v1.32h1.06Zm7.5,3.7a5.6,5.6,0,0,0-.09-1.04,2.4,2.4,0,0,0-.31-0.84,1.506,1.506,0,0,0-.57-0.55,1.872,1.872,0,0,0-.9-0.2,3.015,3.015,0,0,0-1.53.4,2.73,2.73,0,0,0-1.08,1.05v-1.34h-0.96v6.26h1.06v-3.78a2.244,2.244,0,0,1,.32-0.66,2.465,2.465,0,0,1,.51-0.51,2.16,2.16,0,0,1,.61-0.34,1.676,1.676,0,0,1,.65-0.13,1.047,1.047,0,0,1,.93.46,2.72,2.72,0,0,1,.3,1.46v3.5h1.06v-3.74Zm4.64,2.59a1.718,1.718,0,0,1-.35.16,1.485,1.485,0,0,1-.57.11,0.814,0.814,0,0,1-.48-0.16,0.644,0.644,0,0,1-.23-0.5v-3.89h1.41v-0.83h-1.41v-2.09h-1.05v2.09h-0.86v0.83h0.86v4.21a1.157,1.157,0,0,0,.42.99,1.607,1.607,0,0,0,.99.32,3.886,3.886,0,0,0,.49-0.04c0.15-.03.3-0.07,0.43-0.11s0.25-.09.35-0.13,0.19-.09.26-0.12Zm7.55-5.15c-0.04,0-.09-0.01-0.14-0.01h-0.21a1.714,1.714,0,0,0-1.12.43,3.13,3.13,0,0,0-.86,1.07v-1.45h-0.98v6.26h1.06v-3.86a2.052,2.052,0,0,1,.85-1.07,2.834,2.834,0,0,1,1.4-.41v-0.96Zm4.5,6.3a3.286,3.286,0,0,0,.79-0.33,2.977,2.977,0,0,0,.62-0.49,2.662,2.662,0,0,0,.43-0.64l-0.91-.25a1.36,1.36,0,0,1-.29.43,1.464,1.464,0,0,1-.42.32,2.178,2.178,0,0,1-.52.21,1.765,1.765,0,0,1-.56.08,2.081,2.081,0,0,1-.78-0.15,2.2,2.2,0,0,1-.65-0.44,2.134,2.134,0,0,1-.47-0.66,2.311,2.311,0,0,1-.21-0.85h5.19a0.653,0.653,0,0,0,.02-0.17c0-.07.01-0.15,0.01-0.24a3.322,3.322,0,0,0-.23-1.2,2.823,2.823,0,0,0-.63-1.02,3.114,3.114,0,0,0-2.28-.97,3.2,3.2,0,0,0-1.29.26,3.309,3.309,0,0,0-1.02.7,3.362,3.362,0,0,0-.66,1.03,3.508,3.508,0,0,0-.23,1.25,3.563,3.563,0,0,0,.23,1.26,3.247,3.247,0,0,0,.66,1.03,3.069,3.069,0,0,0,1.01.71,3.192,3.192,0,0,0,1.29.25A3.369,3.369,0,0,0,1048.15,3452.01Zm-3-3.55a2.609,2.609,0,0,1,.21-0.81,2.184,2.184,0,0,1,.46-0.65,2.02,2.02,0,0,1,.65-0.42,2.1,2.1,0,0,1,.79-0.15,2.057,2.057,0,0,1,1.45.57,2.212,2.212,0,0,1,.47.64,2.266,2.266,0,0,1,.22.82h-4.25Zm9.36,2.4a1.718,1.718,0,0,1-.35.16,1.485,1.485,0,0,1-.57.11,0.77,0.77,0,0,1-.48-0.16,0.644,0.644,0,0,1-.23-0.5v-3.89h1.4v-0.83h-1.4v-2.09h-1.06v2.09h-0.85v0.83h0.85v4.21a1.157,1.157,0,0,0,.42.99,1.637,1.637,0,0,0,1,.32,3.886,3.886,0,0,0,.49-0.04c0.15-.03.3-0.07,0.43-0.11s0.25-.09.35-0.13,0.19-.09.25-0.12Zm4.43-5.15c-0.04,0-.09-0.01-0.14-0.01h-0.21a1.759,1.759,0,0,0-1.13.43,3.226,3.226,0,0,0-.85,1.07v-1.45h-0.98v6.26h1.05v-3.86a2.12,2.12,0,0,1,.86-1.07,2.834,2.834,0,0,1,1.4-.41v-0.96Zm3.04,6.35a3.426,3.426,0,0,0,.64-0.21,3.209,3.209,0,0,0,.59-0.36,2.627,2.627,0,0,0,.49-0.51l0.03,0.45a0.572,0.572,0,0,0,.27.49,1.1,1.1,0,0,0,.52.14,1.408,1.408,0,0,0,.2-0.01,1.846,1.846,0,0,0,.23-0.04v-0.91a0.321,0.321,0,0,1-.33-0.38v-2.56a2.457,2.457,0,0,0-.7-1.86,2.646,2.646,0,0,0-1.9-.66,3.713,3.713,0,0,0-1.24.21,5.151,5.151,0,0,0-1.22.61l0.35,0.68a3.5,3.5,0,0,1,1.99-.73,1.666,1.666,0,0,1,1.23.44,1.619,1.619,0,0,1,.43,1.2v0.51a4.32,4.32,0,0,0-.83-0.23,4.836,4.836,0,0,0-.92-0.08,3.9,3.9,0,0,0-1.06.13,2.731,2.731,0,0,0-.84.4,1.8,1.8,0,0,0-.55.62,1.829,1.829,0,0,0-.03,1.56,1.975,1.975,0,0,0,.45.62,2.182,2.182,0,0,0,.68.4,2.485,2.485,0,0,0,.87.15A2.937,2.937,0,0,0,1061.98,3452.06Zm-0.99-.82a1.484,1.484,0,0,1-.44-0.27,1.113,1.113,0,0,1-.37-0.85,1.029,1.029,0,0,1,.49-0.91,2.311,2.311,0,0,1,1.31-.33,4.41,4.41,0,0,1,.79.08,4.82,4.82,0,0,1,.79.22v0.93a0.8,0.8,0,0,1-.23.49,2.181,2.181,0,0,1-.75.53,2.446,2.446,0,0,1-.99.21A1.643,1.643,0,0,1,1060.99,3451.24Zm6.82,0.77v-6.26h-1.06v6.26h1.06Zm0-7.44v-1.32h-1.06v1.32h1.06Zm5.06,6.29a1.718,1.718,0,0,1-.35.16,1.485,1.485,0,0,1-.57.11,0.77,0.77,0,0,1-.48-0.16,0.644,0.644,0,0,1-.23-0.5v-3.89h1.4v-0.83h-1.4v-2.09h-1.06v2.09h-0.85v0.83h0.85v4.21a1.157,1.157,0,0,0,.42.99,1.637,1.637,0,0,0,1,.32,3.886,3.886,0,0,0,.49-0.04c0.15-.03.3-0.07,0.43-0.11s0.25-.09.35-0.13,0.19-.09.25-0.12ZM982,3445.91a2.131,2.131,0,0,0,1.594,2.05v6.98h-1.063a0.527,0.527,0,0,0-.531.53,0.533,0.533,0,0,0,.531.53h15.938a0.532,0.532,0,0,0,.531-0.53,0.525,0.525,0,0,0-.531-0.53h-1.063v-6.98a2.131,2.131,0,0,0,1.594-2.05v-0.54H982v0.54Zm10.625,2.12a1.874,1.874,0,1,1,3.719-.07v6.98h-7.969v-6.91A2.125,2.125,0,0,1,992.625,3448.03Zm-4.781-.07v6.98h-3.188v-6.98A1.645,1.645,0,1,1,987.844,3447.96Zm9.031-7.37h-12.75L982,3444.84h17Zm-10.386,1.18-1.063,2.13a0.277,0.277,0,0,1-.239.15,0.258,0.258,0,0,1-.118-0.03,0.27,0.27,0,0,1-.118-0.36l1.062-2.12a0.263,0.263,0,0,1,.356-0.12A0.258,0.258,0,0,1,986.489,3441.77Zm2.125,0-1.063,2.13a0.277,0.277,0,0,1-.239.15,0.258,0.258,0,0,1-.118-0.03,0.27,0.27,0,0,1-.118-0.36l1.062-2.12a0.264,0.264,0,0,1,.356-0.12A0.258,0.258,0,0,1,988.614,3441.77Zm2.152,2.01a0.266,0.266,0,1,1-.532,0v-2.12a0.266,0.266,0,1,1,.532,0v2.12Zm3.05,0.23a0.211,0.211,0,0,1-.129.04,0.263,0.263,0,0,1-.232-0.14l-1.162-2.13a0.265,0.265,0,1,1,.467-0.25l1.162,2.12A0.267,0.267,0,0,1,993.816,3444.01Zm2.115,0.01a0.25,0.25,0,0,1-.119.03,0.272,0.272,0,0,1-.236-0.15l-1.063-2.13a0.257,0.257,0,0,1,.119-0.35,0.265,0.265,0,0,1,.357.12l1.062,2.12A0.272,0.272,0,0,1,995.931,3444.02Zm-9.415,7.81v-1.22a0.53,0.53,0,0,1,.265-0.99,0.531,0.531,0,0,1,.266.99v1.22a0.526,0.526,0,0,1,.265.45A0.531,0.531,0,1,1,986.516,3451.83Zm-2.391-12.3a0.533,0.533,0,0,1,.531-0.53h11.688a0.53,0.53,0,1,1,0,1.06H984.656A0.533,0.533,0,0,1,984.125,3439.53Zm7.186,11.35-0.375-.38,1.5-1.5,0.376,0.37Zm0,1.5-0.375-.38,3-3,0.375,0.37Zm2.63-1.88,0.375,0.38-1.5,1.5-0.376-.38Z" transform="translate(-982 -3439)"/>
</svg>
