<svg xmlns="http://www.w3.org/2000/svg" width="24.031" height="29" viewBox="0 0 24.031 29">
  <defs>
    <style>
      .cls-1 {
        fill: #fff;
        fill-rule: evenodd;
      }
    </style>
  </defs>
  <path id="Forme_80" data-name="Forme 80" class="cls-1" d="M939.559,3434a0.312,0.312,0,0,1-.095.12h-3.171a0.312,0.312,0,0,1-.1-0.12h3.361ZM950,3451.69q0-7.185,0-14.37v-0.59a0.781,0.781,0,0,0-.1-0.1,17.628,17.628,0,0,0-2.073-.94c-0.654-.26-1.331-0.46-1.993-0.7a7.565,7.565,0,0,0-1.092-.26c-0.369-.07-0.738-0.18-1.1-0.23a14.755,14.755,0,0,0-1.877-.27,4.6,4.6,0,0,1-.885-0.17,0.282,0.282,0,0,1,0-.06h-1.32a0.312,0.312,0,0,1-.095.12h-3.171a0.312,0.312,0,0,1-.1-0.12h-1.08a0.328,0.328,0,0,1-.042.1c-0.427,0-.828.16-1.263,0.16a8.794,8.794,0,0,1-.91.1c-0.185.28-.554-0.02-0.74,0.25a1.77,1.77,0,0,0-.789.12c-0.439.09-.878,0.19-1.309,0.32-0.48.14-.947,0.33-1.429,0.46-0.5.14-.961,0.39-1.45,0.56a10.037,10.037,0,0,0-1.165.6,0.881,0.881,0,0,0-.023.1q0,7.59,0,15.16a7.238,7.238,0,0,1,.116,1.16,10.18,10.18,0,0,0,.6,1.75,7,7,0,0,0,1.6,2.66,8.967,8.967,0,0,0,2.069,1.66c0.854,0.55,1.744,1.03,2.63,1.51,0.7,0.37,1.435.69,2.154,1.03,0.854,0.4,1.729.76,2.557,1.22a0.508,0.508,0,0,0,.49.03c0.538-.25,1.072-0.5,1.6-0.77a11.244,11.244,0,0,1,1.492-.74,17.162,17.162,0,0,0,2.4-1.16c0.674-.36,1.338-0.75,1.99-1.16a9.913,9.913,0,0,0,1.462-1.1,6.682,6.682,0,0,0,.907-1.01,8.883,8.883,0,0,0,1.441-2.73,3.1,3.1,0,0,0,.244-1.17,1.386,1.386,0,0,0,.128-0.68A1.418,1.418,0,0,0,950,3451.69Zm-0.959-3.69c0,1.19-.006,2.38-0.012,3.56,0,0.08,0,.16-0.008.24a6.476,6.476,0,0,1-.139.96c-0.051.24-.112,0.48-0.174,0.72-0.023.09-.046,0.17-0.07,0.26a8.951,8.951,0,0,1-.445,1.21c-0.071.16-.147,0.31-0.228,0.47a5.061,5.061,0,0,1-.852,1.22q-0.179.18-.354,0.36c-0.118.12-.235,0.24-0.355,0.36-0.06.06-.121,0.11-0.183,0.17a6.114,6.114,0,0,1-.586.48l-0.093.06c-0.217.15-.435,0.3-0.663,0.44-0.2.11-.408,0.22-0.614,0.33s-0.411.21-.613,0.33c-0.186.11-.371,0.21-0.557,0.32-0.093.05-.186,0.11-0.28,0.16a12.993,12.993,0,0,1-1.434.71c-0.8.34-1.543,0.81-2.375,1.09a1.89,1.89,0,0,0-.38.17c-0.123.06-.243,0.14-0.362,0.21-0.024.01-.047,0.03-0.069,0.04s-0.045.01-.067,0.02a0.577,0.577,0,0,1-.128.02,0.53,0.53,0,0,1-.272-0.09c-0.378-.19-0.763-0.38-1.15-0.55s-0.775-.36-1.158-0.55l-0.773-.36c-0.172-.08-0.344-0.16-0.515-0.25q-0.386-.18-0.761-0.39l-1.247-.69c-0.415-.24-0.829-0.47-1.242-0.71a7.592,7.592,0,0,1-1.212-.89,10.586,10.586,0,0,1-1.026-1.08,6.225,6.225,0,0,1-1.114-2.01c-0.086-.24-0.16-0.5-0.225-0.75a11.371,11.371,0,0,1-.313-2.06c-0.027-.42-0.037-0.83-0.035-1.25h0c0.006-1.25.007-2.49,0.007-3.74,0-.62,0-1.24,0-1.87s0-1.25,0-1.88h0c0.385-.34.77-0.67,1.159-0.99,0.13-.1.261-0.21,0.392-0.31a18.5,18.5,0,0,1,1.626-1.15l0.248-.15,0.249-.15c0.166-.1.334-0.21,0.5-0.3s0.341-.2.515-0.29,0.35-.17.53-0.25c0.491-.22.984-0.44,1.481-0.64s1-.39,1.509-0.56c0.08-.03.159-0.05,0.239-0.08l0.963-.27,0.48-.15c0.08-.03.159-0.05,0.238-0.08l0.086-.03,0.178-.03c0.061,0,.122-0.01.184-0.01,0.031-.01.062-0.01,0.093-0.02a0.621,0.621,0,0,0,.186-0.04,0.93,0.93,0,0,1,.234-0.05c0.119-.02.243-0.03,0.366-0.04a2.188,2.188,0,0,0,.363-0.05,8.247,8.247,0,0,1,.849-0.15c0.213-.02.426-0.05,0.637-0.08a1.537,1.537,0,0,0,.211-0.04,5.964,5.964,0,0,1,.841-0.04l0.329-.03,0.162-.03a4.312,4.312,0,0,1,.792-0.11h0.792a4.65,4.65,0,0,0,.528,0c0.54-.01,1.08.01,1.62,0,0.18,0,.36,0,0.539-0.01a6.021,6.021,0,0,1,.953.13h0.273c0.09,0,.181-0.01.271-0.01a2.737,2.737,0,0,1,.4,0,0.605,0.605,0,0,1,.134.01c0.044,0,.088.01,0.132,0.01,0.061,0.01.121,0.03,0.182,0.04,0.092,0.02.185,0.04,0.285,0.06a0.361,0.361,0,0,1,.1.01,1.71,1.71,0,0,0,.222-0.01h0v0.41c0,2.38,0,4.75,0,7.13C949.042,3445.63,949.041,3446.81,949.038,3448Zm-14.64-4.17q0,4.245,0,8.49a0.833,0.833,0,0,1-.051.46,1.492,1.492,0,0,1-.552.38,6.528,6.528,0,0,1-3.156.49,3.339,3.339,0,0,1-1.643-.67,2.059,2.059,0,0,1-.7-1.1,5.719,5.719,0,0,1-.268-1.59c0.03-2.06.012-4.12,0.012-6.19v-0.64h1.86a0.281,0.281,0,0,1,.3.29c0.014,0.14,0,.29,0,0.43q0,3.21,0,6.42a1.142,1.142,0,0,0,.7,1.16,1.434,1.434,0,0,0,1.212-.11,0.245,0.245,0,0,0,.122-0.18,3.405,3.405,0,0,0,.005-0.43v-7.45a1.538,1.538,0,0,1,.12-0.13h1.8C934.158,3443.81,934.158,3443.81,934.4,3443.83Zm8.418,9.17v-1.93a5.414,5.414,0,0,1,.593.36,1.856,1.856,0,0,0,1.214.41,1.47,1.47,0,0,1,.419,0,0.95,0.95,0,0,0,.764-0.33,0.811,0.811,0,0,0,.24-0.68,1.383,1.383,0,0,0-.407-1.06,10.419,10.419,0,0,0-1.485-1.08,4.266,4.266,0,0,1-1.164-1.22,2.814,2.814,0,0,1-.215-2,2.316,2.316,0,0,1,.7-1.3,2.086,2.086,0,0,1,1.2-.72,2.558,2.558,0,0,1,.762-0.21,1.181,1.181,0,0,1,.72.08c0.338,0.06.65,0.18,0.977,0.26a1.251,1.251,0,0,1,.705.44v1.66a1.472,1.472,0,0,1-.417-0.16,2.791,2.791,0,0,0-1.118-.5,1.3,1.3,0,0,0-1.062.14,0.956,0.956,0,0,0-.373,1.41,2.131,2.131,0,0,0,.56.53c0.432,0.3.892,0.56,1.326,0.86a3.062,3.062,0,0,1,1.276,1.6,2.967,2.967,0,0,1,.075,1.77,3.992,3.992,0,0,1-.527,1.18,2.556,2.556,0,0,1-1.331.98,3.72,3.72,0,0,1-1.934.08A7.434,7.434,0,0,1,942.816,3453Zm-8.418-9.17c-0.24-.02-0.24-0.02-0.24-0.37C934.4,3443.49,934.4,3443.49,934.4,3443.83Zm-2.04-.37a1.538,1.538,0,0,0-.12.13A1.538,1.538,0,0,1,932.358,3443.46Zm9.739,3.33a12.442,12.442,0,0,0-.378-1.24,3.417,3.417,0,0,0-1.135-1.59,3.764,3.764,0,0,0-2.093-.73,8.887,8.887,0,0,0-1.448.12,1.029,1.029,0,0,0-.147.07,4.962,4.962,0,0,0-1.392.59v14.01c0.545,0,1.064-.02,1.581.01,0.543,0.02.585-.14,0.556-0.58-0.014-.23,0-0.45,0-0.67v-3.27a4.447,4.447,0,0,0,.674.14,4.081,4.081,0,0,0,.914-0.1,3.131,3.131,0,0,0,2.019-1.39,3.992,3.992,0,0,0,.651-1.3,5.908,5.908,0,0,0,.284-1.45A11.789,11.789,0,0,0,942.1,3446.79Zm-2.054.94a8.632,8.632,0,0,0,0,.91c0,0.1,0,.19,0,0.29-0.005.18-.021,0.37-0.045,0.56a8.431,8.431,0,0,1-.318,1.36,1.4,1.4,0,0,1-.5.69,1.292,1.292,0,0,1-.782.29,2.119,2.119,0,0,1-.241.01,1.429,1.429,0,0,1-.323-0.02,0.257,0.257,0,0,1-.1-0.04,0.2,0.2,0,0,1-.06-0.09,0.438,0.438,0,0,1-.033-0.13,3.243,3.243,0,0,1-.012-0.45c0.015-.89,0-1.78,0-2.67,0-.95,0-1.89,0-2.84a2.205,2.205,0,0,1,.018-0.38c0-.01.008-0.03,0.013-0.04,0.051-.14.186-0.14,0.542-0.14h0.2a2.113,2.113,0,0,1,.493.08l0.1,0.03a1.237,1.237,0,0,1,.605.52,1.3,1.3,0,0,1,.162.41c0.041,0.21.1,0.41,0.145,0.61A3.425,3.425,0,0,1,940.043,3447.73Z" transform="translate(-926 -3434)"/>
</svg>
