<svg xmlns="http://www.w3.org/2000/svg" width="129" height="20.03" viewBox="0 0 129 20.03">
  <defs>
    <style>
      .cls-1 {
        fill: #fff;
        fill-rule: evenodd;
      }
    </style>
  </defs>
  <path id="CA" class="cls-1" d="M552.943,3445.39c-0.417-.96-0.878-1.9-1.374-2.82-1.039-1.92-.379-1.57-2.576-1.61a3.606,3.606,0,0,1-.658-0.01,1.407,1.407,0,0,0-1.659,1c-1.155,2.24-2.4,4.43-3.594,6.65a9.668,9.668,0,0,0-.422,1.08c0.387-.03.779-0.03,1.16-0.09a4.2,4.2,0,0,0,3.676-2.81,19.1,19.1,0,0,1,1.113-2.33,1.468,1.468,0,0,1,.353-0.35,2.305,2.305,0,0,1,.222.34c0.34,0.79.63,1.61,1.017,2.38,0.31,0.61,1.325,3.13,1.508,3.6,0.249,0.64.523,1.26,0.767,1.9a1.118,1.118,0,0,0,1.173.78c0.733,0,1.465.02,2.2,0.01,0.673-.02.725-0.09,0.455-0.67-0.512-1.12-1.056-2.21-1.579-3.32C554.361,3448.36,553.181,3445.93,552.943,3445.39Zm2.115,2.56a13.8,13.8,0,0,1,2.1-1.17,2.377,2.377,0,0,0,1.77-2.92c-0.106-.73-0.016-0.76-0.722-0.4-1.424.74-2.844,1.48-4.254,2.25-0.486.26-3.654,1.96-4.22,2.24a27.276,27.276,0,0,1-9.017,2.91,8.049,8.049,0,0,1-3.583-.28,1.41,1.41,0,0,1-1.016-2.1,4.058,4.058,0,0,1,1.032-1.62,25.52,25.52,0,0,1,3.555-2.48,10.577,10.577,0,0,1,2.979-1.02c1.375-.29,1.51-0.43.9-1.67-0.39-.8-0.878-1.02-2.017-0.84a11.248,11.248,0,0,0-6,2.93,9.051,9.051,0,0,0-1.757,2.17,4.637,4.637,0,0,0,2.676,6.75,10.2,10.2,0,0,0,3.344.45,16.706,16.706,0,0,0,5.871-1.23c1.385-.57,2.761-1.16,4.107-1.81C551.3,3449.87,554.364,3448.35,555.058,3447.95Zm-9.428,8.49c-3.442,0-6.885.01-10.328-.01a1.464,1.464,0,0,1-1.052-.27,2.4,2.4,0,0,1-.031-1.36,0.976,0.976,0,0,1,.708-0.3c1.061-.03,2.124-0.02,3.186-0.02q8.955,0.015,17.91.01a0.8,0.8,0,0,1,.219,0,1.842,1.842,0,0,1,.879.22,4.388,4.388,0,0,1,.032,1.47,0.711,0.711,0,0,1-.535.25c-0.511.03-1.025,0.01-1.538,0.01h-9.45Zm13.351-15.52a1.206,1.206,0,0,1-.884,1.4c-1.061.46-2.055,1.07-3.084,1.6-1.082.57-1.452,0.42-1.9-.68a0.508,0.508,0,0,1,.312-0.81c1.5-.72,2.98-1.5,4.463-2.26C558.948,3439.63,558.984,3439.64,558.981,3440.92Zm-68.157,17.05h-40a1.615,1.615,0,0,1-.22,0c-0.3-.06-0.595-0.13-0.893-0.19,0.167-.22.33-0.46,0.5-0.68,0.639-.83,1.322-1.62,1.908-2.48,0.383-.57.285-0.7-0.36-0.92-1.011-.35-1.054-0.28-1.722.51a27.353,27.353,0,0,1-2.4,2.49,5.609,5.609,0,0,1-4.6,1.26,2.947,2.947,0,0,1-2.305-2.18,8.391,8.391,0,0,1,.124-4.58c0.6-2.1.083-1.67,2.25-1.81,4.017-.26,7.823-1.18,10.97-3.83a5.939,5.939,0,0,0,2.472-5.14,8.029,8.029,0,0,0-.537-1.96c-0.115-.32-0.12-0.45.269-0.44,0.7,0.01,1.392,0,2.087,0q33.241,0.015,66.481.01c0.11,0,.22-0.01.33,0,1.312,0,1.311,0,1.311,1.31,0,3.34-.006,6.67,0,10.01a8.857,8.857,0,0,0,4.655,8.01,8.943,8.943,0,0,1,.754.55c-0.325.02-.651,0.06-0.976,0.06-2.564,0-5.128-.01-7.692-0.01H490.824v0.01Zm-16.865-9.24c0,1.22-.023,2.44.017,3.66a1.035,1.035,0,0,0,.378.79,1.123,1.123,0,0,0,1.745-1.06c0-1.62,0-3.23,0-4.85a3.286,3.286,0,0,1,.027-0.75,2.908,2.908,0,0,1,.307-0.61,1.99,1.99,0,0,1,.348.56,4.866,4.866,0,0,1,.036.97c0,1.58-.01,3.16,0,4.73,0,0.98.136,1.09,1.17,1.08,0.911-.01.993-0.11,0.992-1.12,0-.86.012-1.73-0.009-2.59-0.031-1.29-.039-2.58-0.144-3.86a1.444,1.444,0,0,0-1.789-1.43c-0.722.05-1.445,0.1-2.168,0.12-0.879.02-.894,0-0.906,0.91C473.948,3446.43,473.96,3447.58,473.959,3448.73Zm16.939,0.62h-0.005c0-1,.028-2-0.007-3.01a1.868,1.868,0,0,0-2.109-2.07c-1.991.1-2.482,0.29-2.7,1.93-0.12.92,0.029,1.07,0.98,1.07,0.876,0,.876,0,1.129-0.88a1.018,1.018,0,0,1,.093-0.31,0.456,0.456,0,0,1,.254-0.16,0.326,0.326,0,0,1,.252.16,4.358,4.358,0,0,1,0,1.27,1.654,1.654,0,0,1-.768.23,1.787,1.787,0,0,1-.328.03,1.5,1.5,0,0,0-1.641,1.53,16.658,16.658,0,0,0-.01,2.79,1.292,1.292,0,0,0,1.52,1.33,17.049,17.049,0,0,1,2.476-.02c0.782,0.06.85-.06,0.864-0.88C490.911,3451.36,490.9,3450.36,490.9,3449.35Zm-18.453,0h-0.01c0-1.07.007-2.15,0-3.22a1.611,1.611,0,0,0-1.137-1.67,4.381,4.381,0,0,0-1.727-.17,1.932,1.932,0,0,0-1.949,2.25,0.649,0.649,0,0,0,.723.73c0.969,0.05,1.053.01,1.469-1a1.065,1.065,0,0,1,.471-0.18,5.305,5.305,0,0,1,.07,1.15,0.958,0.958,0,0,1-.585.32,2.43,2.43,0,0,1-.545.05,1.49,1.49,0,0,0-1.616,1.55,16.465,16.465,0,0,0-.034,2.58,1.494,1.494,0,0,0,1.708,1.54c0.758,0,1.516-.02,2.275-0.03s0.87-.1.884-0.88C472.459,3451.36,472.445,3450.36,472.445,3449.35Zm39.918-.5h-0.016c0,1.22-.016,2.43.014,3.65a0.893,0.893,0,0,0,.3.69,1.123,1.123,0,0,0,1.736-1.08c0.012-1.72-.006-3.44.027-5.16,0.007-.38-0.187-1.06.426-1.03,0.58,0.02.369,0.68,0.374,1.07,0.022,1.79-.01,3.58,0,5.37,0.006,0.83.126,0.91,1.095,0.89,0.894-.02.952-0.05,0.955-0.9,0.007-2.08,0-4.16-.014-6.24a3.162,3.162,0,0,0-.067-0.64,1.288,1.288,0,0,0-1.629-1.19,9.474,9.474,0,0,1-2.374.09,0.688,0.688,0,0,0-.839.82C512.381,3446.41,512.363,3447.63,512.363,3448.85Zm-1.467-.04h0.011c0-.78,0-1.57,0-2.36,0-.1,0-0.21-0.012-0.32a1.77,1.77,0,0,0-1.675-1.8,4.4,4.4,0,0,0-1.087-.06,1.929,1.929,0,0,0-2.117,2.19c-0.032,1.39-.029,2.78-0.013,4.18,0.026,2.21.837,2.9,3.079,2.63,0.036-.01.073-0.01,0.109-0.02a1.672,1.672,0,0,0,1.693-1.76C510.943,3450.6,510.9,3449.71,510.9,3448.81Zm9.89,4.47a5.011,5.011,0,0,0,.548-0.01,1.851,1.851,0,0,0,1.936-2.01,3.094,3.094,0,0,0-1.294-3,3.351,3.351,0,0,1-.9-0.77,4.561,4.561,0,0,1-.479-1.24,0.7,0.7,0,0,1,.241-0.31,0.877,0.877,0,0,1,.27.26,5.158,5.158,0,0,1,.093.75,0.627,0.627,0,0,0,.806.52c0.415-.01.911,0.12,1.106-0.44a2.222,2.222,0,0,0-1.143-2.63c-1.348-.47-3.073.1-3.348,1.21a2.752,2.752,0,0,0,.775,3.05,9,9,0,0,1,1.409,1.35,2.641,2.641,0,0,1,.4,1.16,1.093,1.093,0,0,1-.317.46,2.462,2.462,0,0,1-.326-0.39,0.84,0.84,0,0,1-.031-0.31c-0.041-.37.119-0.86-0.49-0.91a5.291,5.291,0,0,0-1.193.06,0.522,0.522,0,0,0-.288.4C518.421,3452.14,518.572,3453.33,520.786,3453.28Zm-38.46.01c1.964,0.01,2.635-.7,2.636-2.59a2.969,2.969,0,0,0-1.242-2.38,10.306,10.306,0,0,1-1.4-1.35,1.582,1.582,0,0,1-.022-0.88,0.45,0.45,0,0,1,.171-0.09,7.941,7.941,0,0,1,.4.69,1.745,1.745,0,0,0,.318.72,1,1,0,0,0,1.55-.89,4.156,4.156,0,0,0-.065-0.96,1.4,1.4,0,0,0-.92-1.12,2.924,2.924,0,0,0-2.918.34,2.3,2.3,0,0,0-.579,2.67,4.066,4.066,0,0,0,.887,1.32c0.409,0.45.913,0.82,1.36,1.24a1.157,1.157,0,0,1,.339,1.28,0.53,0.53,0,0,1-.35.31,0.587,0.587,0,0,1-.34-0.33,1.2,1.2,0,0,1-.049-0.42c-0.082-.86-0.083-0.87-0.977-0.85-0.393.01-.9-0.08-0.927,0.49C480.114,3452.25,480.311,3453.36,482.326,3453.29Zm12.074-4.4h-0.006c0-.33,0-0.65,0-0.97,0.006-.54,0-1.07.037-1.61a0.725,0.725,0,0,1,.242-0.29,1.386,1.386,0,0,1,.294.25,0.877,0.877,0,0,1,.056.31c0.064,0.36-.178.87,0.378,1a3.67,3.67,0,0,0,1.193.02,0.645,0.645,0,0,0,.41-0.41,2.21,2.21,0,0,0-1.663-2.9c-1.656-.33-2.965.39-3.042,1.89a48,48,0,0,0,.123,5.57,1.8,1.8,0,0,0,.765,1.21,3.07,3.07,0,0,0,3.034-.04c0.88-.43.85-1.25,0.825-2.05-0.031-1-.142-1.08-1.149-1.07a0.715,0.715,0,0,0-.876.81,1.232,1.232,0,0,1-.043.53,2.014,2.014,0,0,1-.365.44,1.322,1.322,0,0,1-.2-0.44C494.388,3450.39,494.4,3449.64,494.4,3448.89Zm6.037,4.4a1.816,1.816,0,0,0,.33-0.01c0.367-.05.848,0.14,0.945-0.46a0.951,0.951,0,0,0-.638-1.25,0.665,0.665,0,0,1-.526-0.7c-0.01-1.44-.027-2.87.009-4.31a0.761,0.761,0,0,1,.457-0.57,0.674,0.674,0,0,0,.625-0.73,0.767,0.767,0,0,0-.644-0.95,0.876,0.876,0,0,1-.43-0.62c-0.078-.34-0.009-0.71-0.055-1.07a0.591,0.591,0,0,0-.27-0.41,1.813,1.813,0,0,0-1.828,1.23,0.876,0.876,0,0,1-.5,1.03,0.832,0.832,0,0,0-.035,1.42,0.907,0.907,0,0,1,.508,1.05c0.024,1.43.036,2.87,0.05,4.3C498.445,3452.77,498.946,3453.28,500.437,3453.29Zm-39.339.04c0.5-.09,1.073.14,1.2-0.56,0.117-.62-0.039-0.83-0.727-1.25a1.088,1.088,0,0,1-.39-0.77c-0.044-1.33-.029-2.65-0.031-3.98a0.652,0.652,0,0,1,.592-0.84,0.626,0.626,0,0,0,.517-0.8,0.585,0.585,0,0,0-.457-0.74,0.726,0.726,0,0,1-.65-0.93,4.007,4.007,0,0,0-.037-0.85,0.57,0.57,0,0,0-.3-0.39,1.575,1.575,0,0,0-1.693,1.21,0.9,0.9,0,0,1-.574,1.02,0.919,0.919,0,0,0-.073,1.38,1.2,1.2,0,0,1,.635,1.43c0.021,1.5.028,3.01,0.032,4.51a1.256,1.256,0,0,0,.948,1.39A6.99,6.99,0,0,0,461.1,3453.33Zm2.05-4.53h0c0,1.18-.022,2.36.016,3.54a1.1,1.1,0,0,0,.352.81,1.073,1.073,0,0,0,1.695-.93c0.013-1.5.011-3,0-4.51a1.091,1.091,0,0,1,.882-1.27,1.755,1.755,0,0,0,.453-2.02,0.425,0.425,0,0,0-.385-0.08,2.961,2.961,0,0,1-1.791.04c-1.1-.07-1.207.04-1.217,1.09C463.14,3446.58,463.148,3447.69,463.148,3448.8Zm41.44,0.07c0-1.18.011-2.36,0-3.54-0.013-1-.027-1-1.055-0.96-0.942.04-.984,0.07-1,0.98-0.02.93-.006,1.86,0,2.79,0,1.47-.019,2.94.022,4.4,0.018,0.65.235,0.73,1.172,0.73,0.536-.01.912-0.08,0.887-0.76C504.557,3451.3,504.589,3450.08,504.588,3448.87Zm-48.891.73v-0.02c0.328,0,.658.02,0.984-0.01a0.551,0.551,0,0,0,.542-0.67,2.177,2.177,0,0,0-.244-1.04,18.843,18.843,0,0,0-2.38-.08,0.227,0.227,0,0,0-.165.12,3.842,3.842,0,0,0-.046,1.26,1.36,1.36,0,0,0,.765.43A1.643,1.643,0,0,0,455.7,3449.6Zm46.807-8.05c-0.016.98,0.113,1.13,0.967,1.15,0.9,0.01,1.094-.16,1.107-1.03,0.015-.98-0.085-1.09-0.979-1.11C502.616,3440.54,502.52,3440.63,502.5,3441.55ZM436.876,3438c1.9,0,3.807-.01,5.71.01a4.607,4.607,0,0,1,.815.13,3.666,3.666,0,0,1-.535.61,20.237,20.237,0,0,0-4.244,4.32,19.573,19.573,0,0,0-3.458,8.16,11.834,11.834,0,0,0,.432,5.62c0.048,0.16.1,0.32,0.147,0.48a2.079,2.079,0,0,1-.5-0.07,7.975,7.975,0,0,1-4.72-4.93,8.412,8.412,0,0,1-.493-2.62c-0.053-3.51-.022-7.03-0.016-10.54,0-1.13.041-1.15,1.158-1.15h5.709V3438Zm14.817,2.85a5.8,5.8,0,0,1-1.869,3.54,11.044,11.044,0,0,1-6.994,2.96c-0.614.05-.737-0.09-0.51-0.67a16.5,16.5,0,0,1,4.393-6.83,6.589,6.589,0,0,1,2.277-1.21C450.533,3438.13,451.676,3439.02,451.693,3440.85Zm37.2,9.53c-0.2.42,0.26,1.22-.506,1.2-0.639-.01-0.32-0.75-0.347-1.17s-0.169-1.15.43-1.15C489.174,3449.26,488.7,3450,488.9,3450.38Zm-18.452-.03a10.4,10.4,0,0,1-.147,1.05,0.334,0.334,0,0,1-.628,0,14.04,14.04,0,0,1,0-1.8,1.131,1.131,0,0,1,.439-0.39,2.137,2.137,0,0,1,.285.5,2.776,2.776,0,0,1,.011.64h0.043Zm38.431-1.6c0,0.71.029,1.43-.016,2.14a2.28,2.28,0,0,1-.329.73,8.658,8.658,0,0,1-.463-0.75,1.048,1.048,0,0,1-.022-0.43c0-1.17-.006-2.35,0-3.53a1.577,1.577,0,0,1,.06-0.63,1.558,1.558,0,0,1,.436-0.39,1.05,1.05,0,0,1,.289.4c0.027,0.82.014,1.64,0.014,2.46h0.034Z" transform="translate(-430 -3438)"/>
</svg>
